<svg width="453.88247070312497px" height="122.02138671875px" xmlns="http://www.w3.org/2000/svg" viewBox="23.058764648437517 13.989306640625003 453.88247070312497 122.02138671875" style="background: rgba(0, 0, 0, 0);" preserveAspectRatio="xMidYMid"><defs><linearGradient id="editing-rainbow-gradient" x1="0" x2="1" y1="0.5" y2="0.5" gradientUnits="objectBoundingBox"><stop offset="0.00" stop-color="#f00"></stop><stop offset="0.17" stop-color="#f90"></stop><stop offset="0.34" stop-color="#ff4"></stop><stop offset="0.51" stop-color="#9f0"></stop><stop offset="0.68" stop-color="#09f"></stop><stop offset="0.85" stop-color="#00f"></stop><stop offset="1.00" stop-color="#90f"></stop></linearGradient><filter id="editing-rainbow" x="-100%" y="-100%" width="300%" height="300%"><feMorphology operator="dilate" radius="1,2" in="SourceGraphic" result="dilate"></feMorphology><feColorMatrix in="dilate" result="color" type="matrix" values="0.7 0 0 0 0  0 0.7 0 0 0  0 0 0.7 0 0  0 0 0 1 0"></feColorMatrix><feOffset dy="2" result="offset"></feOffset><feGaussianBlur stdDeviation="3"></feGaussianBlur><feOffset dy="3"></feOffset><feColorMatrix result="blur" type="matrix" values="0.7 0 0 0 0  0 0.7 0 0 0  0 0 0.7 0 0  0 0 0 1 0"></feColorMatrix><feMerge><feMergeNode in="blur"></feMergeNode><feMergeNode in="offset"></feMergeNode><feMergeNode in="SourceGraphic"></feMergeNode></feMerge></filter></defs><g filter="url(#editing-rainbow)"><g transform="translate(89.6499924659729, 98.67218780517578)"><path d="M6.21-31.17L6.21-31.17L6.21-31.17Q4.03-32.83 4.03-36.38L4.03-36.38L4.03-36.38Q4.03-39.94 6.37-41.79L6.37-41.79L6.37-41.79Q8.70-43.65 12.74-43.65L12.74-43.65L12.74-43.65Q15.30-43.65 21.38-42.75L21.38-42.75L25.73-42.11L25.73-42.11Q27.90-41.86 30.18-41.86L30.18-41.86L30.18-41.86Q32.45-41.86 33.98-42.82L33.98-42.82L33.98-42.82Q36.29-40.77 36.29-37.82L36.29-37.82L36.29-37.82Q36.29-34.88 33.66-32.77L33.66-32.77L33.66-32.77Q30.98-30.53 27.52-30.53L27.52-30.53L27.52-30.53Q25.86-30.53 23.17-30.98L23.17-30.98L23.17-30.98Q20.03-21.12 20.03-14.27L20.03-14.27L20.03-14.27Q20.03-7.42 23.49-3.84L23.49-3.84L23.49-3.84Q21.89-0.96 19.52 0.16L19.52 0.16L19.52 0.16Q17.15 1.28 13.60 1.28L13.60 1.28L13.60 1.28Q10.05 1.28 7.84-0.67L7.84-0.67L7.84-0.67Q5.63-2.62 5.63-6.66L5.63-6.66L5.63-6.66Q5.63-11.33 8.19-19.01L8.19-19.01L8.19-19.01Q10.75-26.62 14.59-32.45L14.59-32.45L14.59-32.45Q12.74-32.64 10.82-32.64L10.82-32.64L10.82-32.64Q6.85-32.64 6.21-31.17ZM66.43-7.10L66.43-7.10L66.43-7.10Q66.43-4.29 69.31-3.46L69.31-3.46L69.31-3.46Q68.61-1.09 65.86 0.19L65.86 0.19L65.86 0.19Q63.55 1.28 61.02 1.28L61.02 1.28L61.02 1.28Q58.50 1.28 57.18 0.61L57.18 0.61L57.18 0.61Q55.87-0.06 55.17-1.15L55.17-1.15L55.17-1.15Q54.02-2.82 54.02-5.95L54.02-5.95L54.02-5.95Q54.02-7.81 55.04-12.93L55.04-12.93L55.94-17.79L55.94-17.79Q57.02-23.36 57.02-25.41L57.02-25.41L57.02-25.41Q57.02-28.99 55.04-28.99L55.04-28.99L55.04-28.99Q52.54-28.99 50.94-25.34L50.94-25.34L50.94-25.34Q50.30-23.94 49.86-21.82L49.86-21.82L45.50 0L32.64 1.28L41.66-44.80L54.53-46.08L54.02-43.52L54.02-43.52Q52.22-33.66 50.69-30.34L50.69-30.34L50.69-30.34Q54.27-33.92 60.86-33.92L60.86-33.92L60.86-33.92Q67.84-33.92 69.12-29.31L69.12-29.31L69.12-29.31Q69.57-27.84 69.57-26.56L69.57-26.56L69.57-26.56Q69.57-25.28 69.47-24.29L69.47-24.29L69.47-24.29Q69.38-23.30 69.06-21.50L69.06-21.50L68.22-16.90L66.75-9.66L66.75-9.66Q66.43-8.19 66.43-7.10ZM77.28-1.92L77.28-1.92L77.28-1.92Q75.78-3.58 75.10-6.21L75.10-6.21L75.10-6.21Q74.43-8.83 74.43-13.12L74.43-13.12L74.43-13.12Q74.43-17.41 75.90-21.31L75.90-21.31L75.90-21.31Q77.38-25.22 80.06-28.03L80.06-28.03L80.06-28.03Q85.57-33.92 94.66-33.92L94.66-33.92L94.66-33.92Q97.92-33.92 100.29-32.83L100.29-32.83L111.23-33.92L106.50-8.96L106.50-8.96Q106.30-8.19 106.30-6.78L106.30-6.78L106.30-6.78Q106.30-5.38 107.17-4.48L107.17-4.48L107.17-4.48Q108.03-3.58 109.31-3.46L109.31-3.46L109.31-3.46Q108.67-1.28 106.34 0L106.34 0L106.34 0Q104 1.28 101.38 1.28L101.38 1.28L101.38 1.28Q98.75 1.28 96.99 0.29L96.99 0.29L96.99 0.29Q95.23-0.70 94.72-2.37L94.72-2.37L94.72-2.37Q93.70-0.77 91.52 0.26L91.52 0.26L91.52 0.26Q89.34 1.28 86.43 1.28L86.43 1.28L86.43 1.28Q83.52 1.28 81.15 0.51L81.15 0.51L81.15 0.51Q78.78-0.26 77.28-1.92ZM90.78-27.90L90.78-27.90L90.78-27.90Q90.05-26.75 89.41-24.80L89.41-24.80L89.41-24.80Q88.77-22.85 87.71-17.63L87.71-17.63L87.71-17.63Q86.66-12.42 86.66-8.70L86.66-8.70L86.66-8.70Q86.66-4.99 87.23-3.90L87.23-3.90L87.23-3.90Q87.81-2.82 88.83-2.82L88.83-2.82L88.83-2.82Q90.88-2.82 92.38-4.77L92.38-4.77L92.38-4.77Q93.89-6.72 94.46-10.18L94.46-10.18L97.86-28.93L97.86-28.93Q96.51-30.08 94.94-30.08L94.94-30.08L94.94-30.08Q93.38-30.08 92.45-29.57L92.45-29.57L92.45-29.57Q91.52-29.06 90.78-27.90ZM141.76 1.28L141.76 1.28L141.76 1.28Q134.02 1.28 134.02-4.74L134.02-4.74L134.02-4.74Q134.08-6.40 134.59-9.22L134.59-9.22L135.74-15.10L135.74-15.10Q137.47-23.42 137.47-25.28L137.47-25.28L137.47-25.28Q137.47-28.99 135.30-28.99L135.30-28.99L135.30-28.99Q131.65-28.99 129.73-19.46L129.73-19.46L125.95 0L113.09 1.28L119.74-32.70L130.24-33.92L129.22-27.65L129.22-27.65Q132.22-33.92 141.44-33.92L141.44-33.92L141.44-33.92Q145.92-33.92 147.81-32.03L147.81-32.03L147.81-32.03Q149.70-30.14 149.70-25.92L149.70-25.92L149.70-25.92Q149.70-21.95 147.65-12.67L147.65-12.67L147.65-12.67Q146.69-8.51 146.69-6.94L146.69-6.94L146.69-6.94Q146.69-5.38 147.55-4.48L147.55-4.48L147.55-4.48Q148.42-3.58 149.70-3.46L149.70-3.46L149.70-3.46Q149.06-1.28 146.85 0L146.85 0L146.85 0Q144.64 1.28 141.76 1.28ZM171.33-30.34L171.33-30.34L171.33-30.34Q174.78-33.92 182.08-33.92L182.08-33.92L182.08-33.92Q186.11-33.92 188.32-31.78L188.32-31.78L188.32-31.78Q190.53-29.63 190.53-25.70L190.53-25.70L190.53-25.70Q190.53-21.76 188.32-18.98L188.32-18.98L188.32-18.98Q186.11-16.19 182.02-15.04L182.02-15.04L182.02-15.04Q182.34-13.76 182.78-12.42L182.78-12.42L183.68-9.86L183.68-9.86Q184.90-6.59 185.86-5.44L185.86-5.44L185.86-5.44Q186.82-4.29 188.10-3.90L188.10-3.90L188.10-3.90Q187.39-1.28 184.83 0.13L184.83 0.13L184.83 0.13Q182.78 1.28 179.97 1.28L179.97 1.28L179.97 1.28Q171.71 1.28 170.62-11.46L170.62-11.46L170.62-11.46Q170.43-13.25 170.43-15.04L170.43-15.04L170.43-15.04Q173.63-15.94 175.87-18.94L175.87-18.94L175.87-18.94Q178.11-21.95 178.11-25.47L178.11-25.47L178.11-25.47Q178.11-28.99 175.62-28.99L175.62-28.99L175.62-28.99Q173.82-28.99 172.42-27.01L172.42-27.01L172.42-27.01Q171.01-25.02 170.37-21.63L170.37-21.63L166.14 0L153.22 1.28L162.18-44.80L175.04-46.08L173.57-38.46L173.57-38.46Q172.61-33.09 171.33-30.34ZM212.74 0L216.45-18.82L216.45-18.82Q214.59-36.16 208.06-39.87L208.06-39.87L208.06-39.87Q209.41-41.54 211.58-42.46L211.58-42.46L211.58-42.46Q213.76-43.39 216.38-43.39L216.38-43.39L216.38-43.39Q219.01-43.39 220.99-42.46L220.99-42.46L220.99-42.46Q222.98-41.54 224.26-39.55L224.26-39.55L224.26-39.55Q226.69-35.78 226.69-26.75L226.69-26.75L226.69-22.14L226.69-22.14Q230.53-33.41 234.37-38.27L234.37-38.27L234.37-38.27Q238.27-43.26 243.14-43.26L243.14-43.26L243.14-43.26Q245.06-43.26 246.34-42.27L246.34-42.27L246.34-42.27Q247.62-41.28 248.26-39.81L248.26-39.81L248.26-39.81Q243.33-37.63 238.59-31.36L238.59-31.36L238.59-31.36Q233.86-25.09 230.78-16.32L230.78-16.32L227.01 0L212.74 0ZM255.62 1.28L255.62 1.28L255.62 1.28Q241.54 1.28 241.54-11.97L241.54-11.97L241.54-11.97Q241.54-21.38 246.72-27.46L246.72-27.46L246.72-27.46Q252.22-33.92 261.76-33.92L261.76-33.92L261.76-33.92Q268.67-33.92 272.19-30.72L272.19-30.72L272.19-30.72Q275.71-27.52 275.71-20.80L275.71-20.80L275.71-20.80Q275.71-10.56 270.21-4.61L270.21-4.61L270.21-4.61Q264.83 1.28 255.62 1.28ZM257.28-26.56L257.28-26.56L257.28-26.56Q256.51-24.83 255.90-22.24L255.90-22.24L255.90-22.24Q255.30-19.65 254.53-15.55L254.53-15.55L254.53-15.55Q253.76-11.46 253.76-6.40L253.76-6.40L253.76-6.40Q253.76-4.74 254.30-3.65L254.30-3.65L254.30-3.65Q254.85-2.56 256.32-2.56L256.32-2.56L256.32-2.56Q257.79-2.56 258.72-3.26L258.72-3.26L258.72-3.26Q259.65-3.97 260.35-5.63L260.35-5.63L260.35-5.63Q261.63-8.58 262.66-14.05L262.66-14.05L262.66-14.05Q263.68-19.52 263.78-21.89L263.78-21.89L263.78-21.89Q263.87-24.26 263.87-26.02L263.87-26.02L263.87-26.02Q263.87-27.78 263.36-28.93L263.36-28.93L263.36-28.93Q262.85-30.08 261.41-30.08L261.41-30.08L261.41-30.08Q259.97-30.08 259.01-29.18L259.01-29.18L259.01-29.18Q258.05-28.29 257.28-26.56ZM300.03-2.69L300.03-2.69L300.03-2.69Q296.96 1.28 289.34 1.28L289.34 1.28L289.34 1.28Q285.38 1.28 282.50-1.12L282.50-1.12L282.50-1.12Q279.62-3.52 279.62-6.98L279.62-6.98L279.62-6.98Q279.62-8.90 279.81-9.86L279.81-9.86L284.10-32.64L297.09-33.92L292.42-9.22L292.42-9.22Q292.16-7.81 292.16-6.98L292.16-6.98L292.16-6.98Q292.16-3.26 294.40-3.26L294.40-3.26L294.40-3.26Q296.90-3.26 298.69-6.66L298.69-6.66L298.69-6.66Q299.26-7.74 299.52-9.15L299.52-9.15L304.06-32.64L316.67-33.92L311.94-8.96L311.94-8.96Q311.74-8 311.74-6.98L311.74-6.98L311.74-6.98Q311.74-5.95 312.32-4.83L312.32-4.83L312.32-4.83Q312.90-3.71 314.75-3.46L314.75-3.46L314.75-3.46Q314.37-1.92 313.02-0.90L313.02-0.90L313.02-0.90Q310.21 1.28 307.17 1.28L307.17 1.28L307.17 1.28Q304.13 1.28 302.34 0.19L302.34 0.19L302.34 0.19Q300.54-0.90 300.03-2.69Z" fill="url(#editing-rainbow-gradient)"></path></g></g><style>text {
  font-size: 64px;
  font-family: Arial Black;
  dominant-baseline: central;
  text-anchor: middle;
}</style></svg>